<?xml version="1.0" encoding="UTF-8"?><svg xmlns="http://www.w3.org/2000/svg" xmlns:xlink="http://www.w3.org/1999/xlink" contentScriptType="text/ecmascript" width="375pt" zoomAndPan="magnify" contentStyleType="text/css" viewBox="115 112 150 150" height="374.999991pt" preserveAspectRatio="xMidYMid meet" version="1.2"><defs><clipPath xml:id="clip1" id="clip1"><path d="M 127.59375 112.726562 L 189.09375 112.726562 L 189.09375 262.289062 L 127.59375 262.289062 Z M 127.59375 112.726562 "/></clipPath><clipPath xml:id="clip2" id="clip2"><path d="M 188.285156 112.726562 L 247.535156 112.726562 L 247.535156 262.289062 L 188.285156 262.289062 Z M 188.285156 112.726562 "/></clipPath></defs><g xml:id="surface1" id="surface1" ><g clip-rule="nonzero" clip-path="url(#clip1)"><path style=" stroke:none;fill-rule:evenodd;fill:rgb(255,255,255);fill-opacity:1;" d="M 191.261719 262.289062 L 191.511719 261.765625 L 191.152344 261.765625 Z M 201.570312 240.71875 L 217.582031 231.492188 C 225.292969 227.046875 233 222.605469 240.710938 218.15625 C 244.6875 215.867188 247.578125 210.738281 247.578125 206.167969 L 247.578125 179.617188 C 247.578125 170.726562 247.578125 161.839844 247.578125 152.953125 C 247.578125 148.367188 244.574219 143.304688 240.609375 141.015625 L 217.582031 127.742188 C 209.871094 123.300781 202.164062 118.855469 194.453125 114.410156 C 190.472656 112.117188 184.582031 112.183594 180.617188 114.46875 L 157.589844 127.742188 C 149.878906 132.1875 142.171875 136.628906 134.460938 141.078125 C 130.484375 143.367188 127.59375 148.496094 127.59375 153.070312 L 127.59375 179.617188 C 127.59375 188.507812 127.59375 197.394531 127.59375 206.28125 C 127.59375 210.867188 130.59375 215.929688 134.5625 218.21875 L 157.589844 231.492188 C 165.300781 235.933594 173.007812 240.378906 180.71875 244.824219 C 181.371094 245.199219 182.078125 245.515625 182.820312 245.761719 C 182.992188 241.523438 183.164062 237.363281 183.324219 233.78125 C 183.457031 230.75 183.902344 230.164062 180.746094 229.085938 C 179.621094 228.703125 178.796875 227.714844 178.796875 226.476562 C 178.796875 224.949219 180.046875 223.703125 181.574219 223.703125 C 185.582031 223.703125 189.585938 223.703125 193.59375 223.703125 C 195.125 223.703125 196.375 224.949219 196.375 226.476562 C 196.375 227.714844 195.546875 228.703125 194.421875 229.085938 C 191.269531 230.164062 191.710938 230.75 191.847656 233.78125 C 191.929688 235.574219 192.011719 237.511719 192.097656 239.53125 L 192.105469 239.707031 L 192.109375 239.824219 L 192.128906 240.277344 L 192.132812 240.417969 L 192.15625 241.015625 L 192.160156 241.042969 L 192.207031 242.207031 L 192.207031 242.222656 L 192.238281 242.984375 L 192.246094 243.132812 L 192.246094 243.183594 L 192.296875 244.355469 L 192.296875 244.363281 L 192.328125 245.15625 L 192.332031 245.28125 L 192.335938 245.351562 L 192.34375 245.550781 L 192.347656 245.589844 L 192.351562 245.746094 C 192.535156 250.226562 192.71875 254.792969 192.902344 258.859375 Z M 193.199219 221.769531 C 193.25 213.421875 204.167969 214.371094 210.507812 209.269531 C 214.917969 205.71875 215.527344 199.933594 215.089844 194.664062 C 214.796875 191.175781 213.875 187.066406 212.246094 181.839844 C 209.984375 174.578125 211.457031 171.40625 211.457031 171.40625 C 212.394531 176.78125 218.386719 178.667969 218.386719 178.667969 C 213.863281 170.371094 216.617188 154.734375 216.617188 154.734375 C 207.21875 162.140625 205.621094 171.917969 207.992188 182.84375 C 209.40625 189.398438 211.40625 196.21875 208.753906 200.585938 C 204.167969 208.128906 189.773438 211.707031 189.773438 194.59375 L 189.773438 171.914062 C 189.773438 165.714844 190.199219 162.027344 197.289062 165.777344 L 187.585938 148.441406 L 177.882812 165.777344 C 184.972656 162.027344 185.398438 165.714844 185.394531 171.914062 L 185.394531 194.59375 C 185.394531 211.707031 171.003906 208.128906 166.417969 200.585938 C 163.765625 196.21875 165.761719 189.398438 167.183594 182.84375 C 169.550781 171.917969 167.949219 162.140625 158.550781 154.734375 C 158.550781 154.734375 161.304688 170.371094 156.785156 178.667969 C 156.785156 178.667969 162.777344 176.78125 163.714844 171.40625 C 163.714844 171.40625 165.1875 174.578125 162.921875 181.839844 C 161.296875 187.066406 160.375 191.175781 160.082031 194.664062 C 159.644531 199.933594 160.253906 205.71875 164.664062 209.269531 C 171.003906 214.371094 181.921875 213.421875 181.972656 221.769531 L 193.199219 221.769531 "/></g><g clip-rule="nonzero" clip-path="url(#clip2)"><path style=" stroke:none;fill-rule:evenodd;fill:rgb(255,255,255);fill-opacity:1;" d="M 191.261719 262.289062 L 191.511719 261.765625 L 191.152344 261.765625 Z M 201.570312 240.71875 L 217.582031 231.492188 C 225.292969 227.046875 233 222.605469 240.710938 218.15625 C 244.6875 215.867188 247.578125 210.738281 247.578125 206.167969 L 247.578125 179.617188 C 247.578125 170.726562 247.578125 161.839844 247.578125 152.953125 C 247.578125 148.367188 244.574219 143.304688 240.609375 141.015625 L 217.582031 127.742188 C 209.871094 123.300781 202.164062 118.855469 194.453125 114.410156 C 190.472656 112.117188 184.582031 112.183594 180.617188 114.46875 L 157.589844 127.742188 C 149.878906 132.1875 142.171875 136.628906 134.460938 141.078125 C 130.484375 143.367188 127.59375 148.496094 127.59375 153.070312 L 127.59375 179.617188 C 127.59375 188.507812 127.59375 197.394531 127.59375 206.28125 C 127.59375 210.867188 130.59375 215.929688 134.5625 218.21875 L 157.589844 231.492188 C 165.300781 235.933594 173.007812 240.378906 180.71875 244.824219 C 181.371094 245.199219 182.078125 245.515625 182.820312 245.761719 C 182.992188 241.523438 183.164062 237.363281 183.324219 233.78125 C 183.457031 230.75 183.902344 230.164062 180.746094 229.085938 C 179.621094 228.703125 178.796875 227.714844 178.796875 226.476562 C 178.796875 224.949219 180.046875 223.703125 181.574219 223.703125 C 185.582031 223.703125 189.585938 223.703125 193.59375 223.703125 C 195.125 223.703125 196.375 224.949219 196.375 226.476562 C 196.375 227.714844 195.546875 228.703125 194.421875 229.085938 C 191.269531 230.164062 191.710938 230.75 191.847656 233.78125 C 191.929688 235.574219 192.011719 237.511719 192.097656 239.53125 L 192.105469 239.707031 L 192.109375 239.824219 L 192.128906 240.277344 L 192.132812 240.417969 L 192.15625 241.015625 L 192.160156 241.042969 L 192.207031 242.207031 L 192.207031 242.222656 L 192.238281 242.984375 L 192.246094 243.132812 L 192.246094 243.183594 L 192.296875 244.355469 L 192.296875 244.363281 L 192.328125 245.15625 L 192.332031 245.28125 L 192.335938 245.351562 L 192.34375 245.550781 L 192.347656 245.589844 L 192.351562 245.746094 C 192.535156 250.226562 192.71875 254.792969 192.902344 258.859375 Z M 193.199219 221.769531 C 193.25 213.421875 204.167969 214.371094 210.507812 209.269531 C 214.917969 205.71875 215.527344 199.933594 215.089844 194.664062 C 214.796875 191.175781 213.875 187.066406 212.246094 181.839844 C 209.984375 174.578125 211.457031 171.40625 211.457031 171.40625 C 212.394531 176.78125 218.386719 178.667969 218.386719 178.667969 C 213.863281 170.371094 216.617188 154.734375 216.617188 154.734375 C 207.21875 162.140625 205.621094 171.917969 207.992188 182.84375 C 209.40625 189.398438 211.40625 196.21875 208.753906 200.585938 C 204.167969 208.128906 189.773438 211.707031 189.773438 194.59375 L 189.773438 171.914062 C 189.773438 165.714844 190.199219 162.027344 197.289062 165.777344 L 187.585938 148.441406 L 177.882812 165.777344 C 184.972656 162.027344 185.398438 165.714844 185.394531 171.914062 L 185.394531 194.59375 C 185.394531 211.707031 171.003906 208.128906 166.417969 200.585938 C 163.765625 196.21875 165.761719 189.398438 167.183594 182.84375 C 169.550781 171.917969 167.949219 162.140625 158.550781 154.734375 C 158.550781 154.734375 161.304688 170.371094 156.785156 178.667969 C 156.785156 178.667969 162.777344 176.78125 163.714844 171.40625 C 163.714844 171.40625 165.1875 174.578125 162.921875 181.839844 C 161.296875 187.066406 160.375 191.175781 160.082031 194.664062 C 159.644531 199.933594 160.253906 205.71875 164.664062 209.269531 C 171.003906 214.371094 181.921875 213.421875 181.972656 221.769531 L 193.199219 221.769531 "/></g></g></svg>
